<svg xmlns="http://www.w3.org/2000/svg" xmlns:xlink="http://www.w3.org/1999/xlink" width="1890" height="189" version="1.2" viewBox="0 0 1417.5 141.75"><defs><clipPath id="clip1"><path d="M 36.214844 0 L 53.90625 0 L 53.90625 17.691406 L 36.214844 17.691406 Z M 36.214844 0"/></clipPath><clipPath id="clip2"><path d="M 18.605469 17.660156 L 36.300781 17.660156 L 36.300781 35.351562 L 18.605469 35.351562 Z M 18.605469 17.660156"/></clipPath><clipPath id="clip3"><path d="M 1 0 L 18.691406 0 L 18.691406 17.691406 L 1 17.691406 Z M 1 0"/></clipPath><clipPath id="clip4"><path d="M 53.824219 17.660156 L 71.515625 17.660156 L 71.515625 35.351562 L 53.824219 35.351562 Z M 53.824219 17.660156"/></clipPath><clipPath id="clip5"><path d="M 106.652344 0 L 124.34375 0 L 124.34375 17.691406 L 106.652344 17.691406 Z M 106.652344 0"/></clipPath><clipPath id="clip6"><path d="M 89.042969 17.660156 L 106.734375 17.660156 L 106.734375 35.351562 L 89.042969 35.351562 Z M 89.042969 17.660156"/></clipPath><clipPath id="clip7"><path d="M 71.433594 0 L 89.125 0 L 89.125 17.691406 L 71.433594 17.691406 Z M 71.433594 0"/></clipPath><clipPath id="clip8"><path d="M 124.261719 17.660156 L 141.953125 17.660156 L 141.953125 35.351562 L 124.261719 35.351562 Z M 124.261719 17.660156"/></clipPath><clipPath id="clip9"><path d="M 177.089844 0 L 194.78125 0 L 194.78125 17.691406 L 177.089844 17.691406 Z M 177.089844 0"/></clipPath><clipPath id="clip10"><path d="M 159.480469 17.660156 L 177.171875 17.660156 L 177.171875 35.351562 L 159.480469 35.351562 Z M 159.480469 17.660156"/></clipPath><clipPath id="clip11"><path d="M 141.871094 0 L 159.5625 0 L 159.5625 17.691406 L 141.871094 17.691406 Z M 141.871094 0"/></clipPath><clipPath id="clip12"><path d="M 194.699219 17.660156 L 212.390625 17.660156 L 212.390625 35.351562 L 194.699219 35.351562 Z M 194.699219 17.660156"/></clipPath><clipPath id="clip13"><path d="M 247.527344 0 L 265.21875 0 L 265.21875 17.691406 L 247.527344 17.691406 Z M 247.527344 0"/></clipPath><clipPath id="clip14"><path d="M 229.917969 17.660156 L 247.609375 17.660156 L 247.609375 35.351562 L 229.917969 35.351562 Z M 229.917969 17.660156"/></clipPath><clipPath id="clip15"><path d="M 212.308594 0 L 230 0 L 230 17.691406 L 212.308594 17.691406 Z M 212.308594 0"/></clipPath><clipPath id="clip16"><path d="M 265.136719 17.660156 L 282.828125 17.660156 L 282.828125 35.351562 L 265.136719 35.351562 Z M 265.136719 17.660156"/></clipPath><clipPath id="clip17"><path d="M 317.964844 0 L 335.65625 0 L 335.65625 17.691406 L 317.964844 17.691406 Z M 317.964844 0"/></clipPath><clipPath id="clip18"><path d="M 300.355469 17.660156 L 318.046875 17.660156 L 318.046875 35.351562 L 300.355469 35.351562 Z M 300.355469 17.660156"/></clipPath><clipPath id="clip19"><path d="M 282.746094 0 L 300.4375 0 L 300.4375 17.691406 L 282.746094 17.691406 Z M 282.746094 0"/></clipPath><clipPath id="clip20"><path d="M 335.574219 17.660156 L 353.265625 17.660156 L 353.265625 35.351562 L 335.574219 35.351562 Z M 335.574219 17.660156"/></clipPath><clipPath id="clip21"><path d="M 388.398438 0 L 406.089844 0 L 406.089844 17.691406 L 388.398438 17.691406 Z M 388.398438 0"/></clipPath><clipPath id="clip22"><path d="M 370.789062 17.660156 L 388.484375 17.660156 L 388.484375 35.351562 L 370.789062 35.351562 Z M 370.789062 17.660156"/></clipPath><clipPath id="clip23"><path d="M 353.183594 0 L 370.875 0 L 370.875 17.691406 L 353.183594 17.691406 Z M 353.183594 0"/></clipPath><clipPath id="clip24"><path d="M 406.007812 17.660156 L 423.699219 17.660156 L 423.699219 35.351562 L 406.007812 35.351562 Z M 406.007812 17.660156"/></clipPath><clipPath id="clip25"><path d="M 458.835938 0 L 476.527344 0 L 476.527344 17.691406 L 458.835938 17.691406 Z M 458.835938 0"/></clipPath><clipPath id="clip26"><path d="M 441.226562 17.660156 L 458.917969 17.660156 L 458.917969 35.351562 L 441.226562 35.351562 Z M 441.226562 17.660156"/></clipPath><clipPath id="clip27"><path d="M 423.617188 0 L 441.308594 0 L 441.308594 17.691406 L 423.617188 17.691406 Z M 423.617188 0"/></clipPath><clipPath id="clip28"><path d="M 476.445312 17.660156 L 494.136719 17.660156 L 494.136719 35.351562 L 476.445312 35.351562 Z M 476.445312 17.660156"/></clipPath><clipPath id="clip29"><path d="M 529.273438 0 L 546.964844 0 L 546.964844 17.691406 L 529.273438 17.691406 Z M 529.273438 0"/></clipPath><clipPath id="clip30"><path d="M 511.664062 17.660156 L 529.355469 17.660156 L 529.355469 35.351562 L 511.664062 35.351562 Z M 511.664062 17.660156"/></clipPath><clipPath id="clip31"><path d="M 494.054688 0 L 511.746094 0 L 511.746094 17.691406 L 494.054688 17.691406 Z M 494.054688 0"/></clipPath><clipPath id="clip32"><path d="M 546.882812 17.660156 L 564.574219 17.660156 L 564.574219 35.351562 L 546.882812 35.351562 Z M 546.882812 17.660156"/></clipPath><clipPath id="clip33"><path d="M 603.007812 0 L 620.699219 0 L 620.699219 17.691406 L 603.007812 17.691406 Z M 603.007812 0"/></clipPath><clipPath id="clip34"><path d="M 585.398438 17.660156 L 603.089844 17.660156 L 603.089844 35.351562 L 585.398438 35.351562 Z M 585.398438 17.660156"/></clipPath><clipPath id="clip35"><path d="M 567.789062 0 L 585.480469 0 L 585.480469 17.691406 L 567.789062 17.691406 Z M 567.789062 0"/></clipPath><clipPath id="clip36"><path d="M 620.617188 17.660156 L 638.308594 17.660156 L 638.308594 35.351562 L 620.617188 35.351562 Z M 620.617188 17.660156"/></clipPath><clipPath id="clip37"><path d="M 673.441406 0 L 691.132812 0 L 691.132812 17.691406 L 673.441406 17.691406 Z M 673.441406 0"/></clipPath><clipPath id="clip38"><path d="M 655.832031 17.660156 L 673.527344 17.660156 L 673.527344 35.351562 L 655.832031 35.351562 Z M 655.832031 17.660156"/></clipPath><clipPath id="clip39"><path d="M 638.226562 0 L 655.917969 0 L 655.917969 17.691406 L 638.226562 17.691406 Z M 638.226562 0"/></clipPath><clipPath id="clip40"><path d="M 691.050781 17.660156 L 708.742188 17.660156 L 708.742188 35.351562 L 691.050781 35.351562 Z M 691.050781 17.660156"/></clipPath><clipPath id="clip41"><path d="M 743.878906 0 L 761.570312 0 L 761.570312 17.691406 L 743.878906 17.691406 Z M 743.878906 0"/></clipPath><clipPath id="clip42"><path d="M 726.269531 17.660156 L 743.960938 17.660156 L 743.960938 35.351562 L 726.269531 35.351562 Z M 726.269531 17.660156"/></clipPath><clipPath id="clip43"><path d="M 708.660156 0 L 726.351562 0 L 726.351562 17.691406 L 708.660156 17.691406 Z M 708.660156 0"/></clipPath><clipPath id="clip44"><path d="M 761.488281 17.660156 L 779.179688 17.660156 L 779.179688 35.351562 L 761.488281 35.351562 Z M 761.488281 17.660156"/></clipPath><clipPath id="clip45"><path d="M 814.316406 0 L 832.007812 0 L 832.007812 17.691406 L 814.316406 17.691406 Z M 814.316406 0"/></clipPath><clipPath id="clip46"><path d="M 796.707031 17.660156 L 814.398438 17.660156 L 814.398438 35.351562 L 796.707031 35.351562 Z M 796.707031 17.660156"/></clipPath><clipPath id="clip47"><path d="M 779.097656 0 L 796.789062 0 L 796.789062 17.691406 L 779.097656 17.691406 Z M 779.097656 0"/></clipPath><clipPath id="clip48"><path d="M 831.925781 17.660156 L 849.617188 17.660156 L 849.617188 35.351562 L 831.925781 35.351562 Z M 831.925781 17.660156"/></clipPath><clipPath id="clip49"><path d="M 884.753906 0 L 902.445312 0 L 902.445312 17.691406 L 884.753906 17.691406 Z M 884.753906 0"/></clipPath><clipPath id="clip50"><path d="M 867.144531 17.660156 L 884.835938 17.660156 L 884.835938 35.351562 L 867.144531 35.351562 Z M 867.144531 17.660156"/></clipPath><clipPath id="clip51"><path d="M 849.535156 0 L 867.226562 0 L 867.226562 17.691406 L 849.535156 17.691406 Z M 849.535156 0"/></clipPath><clipPath id="clip52"><path d="M 902.363281 17.660156 L 920.054688 17.660156 L 920.054688 35.351562 L 902.363281 35.351562 Z M 902.363281 17.660156"/></clipPath><clipPath id="clip53"><path d="M 955.191406 0 L 972.882812 0 L 972.882812 17.691406 L 955.191406 17.691406 Z M 955.191406 0"/></clipPath><clipPath id="clip54"><path d="M 937.582031 17.660156 L 955.273438 17.660156 L 955.273438 35.351562 L 937.582031 35.351562 Z M 937.582031 17.660156"/></clipPath><clipPath id="clip55"><path d="M 919.972656 0 L 937.664062 0 L 937.664062 17.691406 L 919.972656 17.691406 Z M 919.972656 0"/></clipPath><clipPath id="clip56"><path d="M 972.800781 17.660156 L 990.492188 17.660156 L 990.492188 35.351562 L 972.800781 35.351562 Z M 972.800781 17.660156"/></clipPath><clipPath id="clip57"><path d="M 1025.625 0 L 1043.316406 0 L 1043.316406 17.691406 L 1025.625 17.691406 Z M 1025.625 0"/></clipPath><clipPath id="clip58"><path d="M 1008.015625 17.660156 L 1025.707031 17.660156 L 1025.707031 35.351562 L 1008.015625 35.351562 Z M 1008.015625 17.660156"/></clipPath><clipPath id="clip59"><path d="M 990.410156 0 L 1008.101562 0 L 1008.101562 17.691406 L 990.410156 17.691406 Z M 990.410156 0"/></clipPath><clipPath id="clip60"><path d="M 1043.234375 17.660156 L 1060.925781 17.660156 L 1060.925781 35.351562 L 1043.234375 35.351562 Z M 1043.234375 17.660156"/></clipPath><clipPath id="clip61"><path d="M 1096.0625 0 L 1113.753906 0 L 1113.753906 17.691406 L 1096.0625 17.691406 Z M 1096.0625 0"/></clipPath><clipPath id="clip62"><path d="M 1078.453125 17.660156 L 1096.144531 17.660156 L 1096.144531 35.351562 L 1078.453125 35.351562 Z M 1078.453125 17.660156"/></clipPath><clipPath id="clip63"><path d="M 1060.84375 0 L 1078.535156 0 L 1078.535156 17.691406 L 1060.84375 17.691406 Z M 1060.84375 0"/></clipPath><clipPath id="clip64"><path d="M 1113.671875 17.660156 L 1131.363281 17.660156 L 1131.363281 35.351562 L 1113.671875 35.351562 Z M 1113.671875 17.660156"/></clipPath><clipPath id="clip65"><path d="M 1166.5 0 L 1184.191406 0 L 1184.191406 17.691406 L 1166.5 17.691406 Z M 1166.5 0"/></clipPath><clipPath id="clip66"><path d="M 1148.890625 17.660156 L 1166.582031 17.660156 L 1166.582031 35.351562 L 1148.890625 35.351562 Z M 1148.890625 17.660156"/></clipPath><clipPath id="clip67"><path d="M 1131.28125 0 L 1148.972656 0 L 1148.972656 17.691406 L 1131.28125 17.691406 Z M 1131.28125 0"/></clipPath><clipPath id="clip68"><path d="M 1184.109375 17.660156 L 1201.800781 17.660156 L 1201.800781 35.351562 L 1184.109375 35.351562 Z M 1184.109375 17.660156"/></clipPath><clipPath id="clip69"><path d="M 1236.9375 0 L 1254.628906 0 L 1254.628906 17.691406 L 1236.9375 17.691406 Z M 1236.9375 0"/></clipPath><clipPath id="clip70"><path d="M 1219.328125 17.660156 L 1237.019531 17.660156 L 1237.019531 35.351562 L 1219.328125 35.351562 Z M 1219.328125 17.660156"/></clipPath><clipPath id="clip71"><path d="M 1201.71875 0 L 1219.410156 0 L 1219.410156 17.691406 L 1201.71875 17.691406 Z M 1201.71875 0"/></clipPath><clipPath id="clip72"><path d="M 1254.546875 17.660156 L 1272.238281 17.660156 L 1272.238281 35.351562 L 1254.546875 35.351562 Z M 1254.546875 17.660156"/></clipPath><clipPath id="clip73"><path d="M 1310.667969 0 L 1328.359375 0 L 1328.359375 17.691406 L 1310.667969 17.691406 Z M 1310.667969 0"/></clipPath><clipPath id="clip74"><path d="M 1293.058594 17.660156 L 1310.75 17.660156 L 1310.75 35.351562 L 1293.058594 35.351562 Z M 1293.058594 17.660156"/></clipPath><clipPath id="clip75"><path d="M 1275.453125 0 L 1293.144531 0 L 1293.144531 17.691406 L 1275.453125 17.691406 Z M 1275.453125 0"/></clipPath><clipPath id="clip76"><path d="M 1328.277344 17.660156 L 1345.96875 17.660156 L 1345.96875 35.351562 L 1328.277344 35.351562 Z M 1328.277344 17.660156"/></clipPath><clipPath id="clip77"><path d="M 1381.105469 0 L 1398.796875 0 L 1398.796875 17.691406 L 1381.105469 17.691406 Z M 1381.105469 0"/></clipPath><clipPath id="clip78"><path d="M 1363.496094 17.660156 L 1381.1875 17.660156 L 1381.1875 35.351562 L 1363.496094 35.351562 Z M 1363.496094 17.660156"/></clipPath><clipPath id="clip79"><path d="M 1345.886719 0 L 1363.578125 0 L 1363.578125 17.691406 L 1345.886719 17.691406 Z M 1345.886719 0"/></clipPath><clipPath id="clip80"><path d="M 1398.714844 17.660156 L 1416.003906 17.660156 L 1416.003906 35.351562 L 1398.714844 35.351562 Z M 1398.714844 17.660156"/></clipPath></defs><g id="surface1"><g clip-path="url(#clip1)" clip-rule="nonzero"><path style="stroke:none;fill-rule:nonzero;fill:#2b4892;fill-opacity:1" d="M 36.214844 0 L 53.90625 0 L 53.90625 17.691406 L 36.214844 17.691406 Z M 36.214844 0"/></g><g clip-path="url(#clip2)" clip-rule="nonzero"><path style="stroke:none;fill-rule:nonzero;fill:#6abf48;fill-opacity:1" d="M 18.605469 17.660156 L 36.300781 17.660156 L 36.300781 35.351562 L 18.605469 35.351562 Z M 18.605469 17.660156"/></g><g clip-path="url(#clip3)" clip-rule="nonzero"><path style="stroke:none;fill-rule:nonzero;fill:#f40c97;fill-opacity:1" d="M 1 0 L 18.691406 0 L 18.691406 17.691406 L 1 17.691406 Z M 1 0"/></g><g clip-path="url(#clip4)" clip-rule="nonzero"><path style="stroke:none;fill-rule:nonzero;fill:#faff11;fill-opacity:1" d="M 53.824219 17.660156 L 71.515625 17.660156 L 71.515625 35.351562 L 53.824219 35.351562 Z M 53.824219 17.660156"/></g><g clip-path="url(#clip5)" clip-rule="nonzero"><path style="stroke:none;fill-rule:nonzero;fill:#2b4892;fill-opacity:1" d="M 106.652344 0 L 124.34375 0 L 124.34375 17.691406 L 106.652344 17.691406 Z M 106.652344 0"/></g><g clip-path="url(#clip6)" clip-rule="nonzero"><path style="stroke:none;fill-rule:nonzero;fill:#6abf48;fill-opacity:1" d="M 89.042969 17.660156 L 106.734375 17.660156 L 106.734375 35.351562 L 89.042969 35.351562 Z M 89.042969 17.660156"/></g><g clip-path="url(#clip7)" clip-rule="nonzero"><path style="stroke:none;fill-rule:nonzero;fill:#f40c97;fill-opacity:1" d="M 71.433594 0 L 89.125 0 L 89.125 17.691406 L 71.433594 17.691406 Z M 71.433594 0"/></g><g clip-path="url(#clip8)" clip-rule="nonzero"><path style="stroke:none;fill-rule:nonzero;fill:#faff11;fill-opacity:1" d="M 124.261719 17.660156 L 141.953125 17.660156 L 141.953125 35.351562 L 124.261719 35.351562 Z M 124.261719 17.660156"/></g><g clip-path="url(#clip9)" clip-rule="nonzero"><path style="stroke:none;fill-rule:nonzero;fill:#2b4892;fill-opacity:1" d="M 177.089844 0 L 194.78125 0 L 194.78125 17.691406 L 177.089844 17.691406 Z M 177.089844 0"/></g><g clip-path="url(#clip10)" clip-rule="nonzero"><path style="stroke:none;fill-rule:nonzero;fill:#6abf48;fill-opacity:1" d="M 159.480469 17.660156 L 177.171875 17.660156 L 177.171875 35.351562 L 159.480469 35.351562 Z M 159.480469 17.660156"/></g><g clip-path="url(#clip11)" clip-rule="nonzero"><path style="stroke:none;fill-rule:nonzero;fill:#f40c97;fill-opacity:1" d="M 141.871094 0 L 159.5625 0 L 159.5625 17.691406 L 141.871094 17.691406 Z M 141.871094 0"/></g><g clip-path="url(#clip12)" clip-rule="nonzero"><path style="stroke:none;fill-rule:nonzero;fill:#faff11;fill-opacity:1" d="M 194.699219 17.660156 L 212.390625 17.660156 L 212.390625 35.351562 L 194.699219 35.351562 Z M 194.699219 17.660156"/></g><g clip-path="url(#clip13)" clip-rule="nonzero"><path style="stroke:none;fill-rule:nonzero;fill:#2b4892;fill-opacity:1" d="M 247.527344 0 L 265.21875 0 L 265.21875 17.691406 L 247.527344 17.691406 Z M 247.527344 0"/></g><g clip-path="url(#clip14)" clip-rule="nonzero"><path style="stroke:none;fill-rule:nonzero;fill:#6abf48;fill-opacity:1" d="M 229.917969 17.660156 L 247.609375 17.660156 L 247.609375 35.351562 L 229.917969 35.351562 Z M 229.917969 17.660156"/></g><g clip-path="url(#clip15)" clip-rule="nonzero"><path style="stroke:none;fill-rule:nonzero;fill:#f40c97;fill-opacity:1" d="M 212.308594 0 L 230 0 L 230 17.691406 L 212.308594 17.691406 Z M 212.308594 0"/></g><g clip-path="url(#clip16)" clip-rule="nonzero"><path style="stroke:none;fill-rule:nonzero;fill:#faff11;fill-opacity:1" d="M 265.136719 17.660156 L 282.828125 17.660156 L 282.828125 35.351562 L 265.136719 35.351562 Z M 265.136719 17.660156"/></g><g clip-path="url(#clip17)" clip-rule="nonzero"><path style="stroke:none;fill-rule:nonzero;fill:#2b4892;fill-opacity:1" d="M 317.964844 0 L 335.65625 0 L 335.65625 17.691406 L 317.964844 17.691406 Z M 317.964844 0"/></g><g clip-path="url(#clip18)" clip-rule="nonzero"><path style="stroke:none;fill-rule:nonzero;fill:#6abf48;fill-opacity:1" d="M 300.355469 17.660156 L 318.046875 17.660156 L 318.046875 35.351562 L 300.355469 35.351562 Z M 300.355469 17.660156"/></g><g clip-path="url(#clip19)" clip-rule="nonzero"><path style="stroke:none;fill-rule:nonzero;fill:#f40c97;fill-opacity:1" d="M 282.746094 0 L 300.4375 0 L 300.4375 17.691406 L 282.746094 17.691406 Z M 282.746094 0"/></g><g clip-path="url(#clip20)" clip-rule="nonzero"><path style="stroke:none;fill-rule:nonzero;fill:#faff11;fill-opacity:1" d="M 335.574219 17.660156 L 353.265625 17.660156 L 353.265625 35.351562 L 335.574219 35.351562 Z M 335.574219 17.660156"/></g><g clip-path="url(#clip21)" clip-rule="nonzero"><path style="stroke:none;fill-rule:nonzero;fill:#2b4892;fill-opacity:1" d="M 388.398438 0 L 406.089844 0 L 406.089844 17.691406 L 388.398438 17.691406 Z M 388.398438 0"/></g><g clip-path="url(#clip22)" clip-rule="nonzero"><path style="stroke:none;fill-rule:nonzero;fill:#6abf48;fill-opacity:1" d="M 370.789062 17.660156 L 388.484375 17.660156 L 388.484375 35.351562 L 370.789062 35.351562 Z M 370.789062 17.660156"/></g><g clip-path="url(#clip23)" clip-rule="nonzero"><path style="stroke:none;fill-rule:nonzero;fill:#f40c97;fill-opacity:1" d="M 353.183594 0 L 370.875 0 L 370.875 17.691406 L 353.183594 17.691406 Z M 353.183594 0"/></g><g clip-path="url(#clip24)" clip-rule="nonzero"><path style="stroke:none;fill-rule:nonzero;fill:#faff11;fill-opacity:1" d="M 406.007812 17.660156 L 423.699219 17.660156 L 423.699219 35.351562 L 406.007812 35.351562 Z M 406.007812 17.660156"/></g><g clip-path="url(#clip25)" clip-rule="nonzero"><path style="stroke:none;fill-rule:nonzero;fill:#2b4892;fill-opacity:1" d="M 458.835938 0 L 476.527344 0 L 476.527344 17.691406 L 458.835938 17.691406 Z M 458.835938 0"/></g><g clip-path="url(#clip26)" clip-rule="nonzero"><path style="stroke:none;fill-rule:nonzero;fill:#6abf48;fill-opacity:1" d="M 441.226562 17.660156 L 458.917969 17.660156 L 458.917969 35.351562 L 441.226562 35.351562 Z M 441.226562 17.660156"/></g><g clip-path="url(#clip27)" clip-rule="nonzero"><path style="stroke:none;fill-rule:nonzero;fill:#f40c97;fill-opacity:1" d="M 423.617188 0 L 441.308594 0 L 441.308594 17.691406 L 423.617188 17.691406 Z M 423.617188 0"/></g><g clip-path="url(#clip28)" clip-rule="nonzero"><path style="stroke:none;fill-rule:nonzero;fill:#faff11;fill-opacity:1" d="M 476.445312 17.660156 L 494.136719 17.660156 L 494.136719 35.351562 L 476.445312 35.351562 Z M 476.445312 17.660156"/></g><g clip-path="url(#clip29)" clip-rule="nonzero"><path style="stroke:none;fill-rule:nonzero;fill:#2b4892;fill-opacity:1" d="M 529.273438 0 L 546.964844 0 L 546.964844 17.691406 L 529.273438 17.691406 Z M 529.273438 0"/></g><g clip-path="url(#clip30)" clip-rule="nonzero"><path style="stroke:none;fill-rule:nonzero;fill:#6abf48;fill-opacity:1" d="M 511.664062 17.660156 L 529.355469 17.660156 L 529.355469 35.351562 L 511.664062 35.351562 Z M 511.664062 17.660156"/></g><g clip-path="url(#clip31)" clip-rule="nonzero"><path style="stroke:none;fill-rule:nonzero;fill:#f40c97;fill-opacity:1" d="M 494.054688 0 L 511.746094 0 L 511.746094 17.691406 L 494.054688 17.691406 Z M 494.054688 0"/></g><g clip-path="url(#clip32)" clip-rule="nonzero"><path style="stroke:none;fill-rule:nonzero;fill:#faff11;fill-opacity:1" d="M 546.882812 17.660156 L 564.574219 17.660156 L 564.574219 35.351562 L 546.882812 35.351562 Z M 546.882812 17.660156"/></g><g clip-path="url(#clip33)" clip-rule="nonzero"><path style="stroke:none;fill-rule:nonzero;fill:#2b4892;fill-opacity:1" d="M 603.007812 0 L 620.699219 0 L 620.699219 17.691406 L 603.007812 17.691406 Z M 603.007812 0"/></g><g clip-path="url(#clip34)" clip-rule="nonzero"><path style="stroke:none;fill-rule:nonzero;fill:#6abf48;fill-opacity:1" d="M 585.398438 17.660156 L 603.089844 17.660156 L 603.089844 35.351562 L 585.398438 35.351562 Z M 585.398438 17.660156"/></g><g clip-path="url(#clip35)" clip-rule="nonzero"><path style="stroke:none;fill-rule:nonzero;fill:#f40c97;fill-opacity:1" d="M 567.789062 0 L 585.480469 0 L 585.480469 17.691406 L 567.789062 17.691406 Z M 567.789062 0"/></g><g clip-path="url(#clip36)" clip-rule="nonzero"><path style="stroke:none;fill-rule:nonzero;fill:#faff11;fill-opacity:1" d="M 620.617188 17.660156 L 638.308594 17.660156 L 638.308594 35.351562 L 620.617188 35.351562 Z M 620.617188 17.660156"/></g><g clip-path="url(#clip37)" clip-rule="nonzero"><path style="stroke:none;fill-rule:nonzero;fill:#2b4892;fill-opacity:1" d="M 673.441406 0 L 691.132812 0 L 691.132812 17.691406 L 673.441406 17.691406 Z M 673.441406 0"/></g><g clip-path="url(#clip38)" clip-rule="nonzero"><path style="stroke:none;fill-rule:nonzero;fill:#6abf48;fill-opacity:1" d="M 655.832031 17.660156 L 673.527344 17.660156 L 673.527344 35.351562 L 655.832031 35.351562 Z M 655.832031 17.660156"/></g><g clip-path="url(#clip39)" clip-rule="nonzero"><path style="stroke:none;fill-rule:nonzero;fill:#f40c97;fill-opacity:1" d="M 638.226562 0 L 655.917969 0 L 655.917969 17.691406 L 638.226562 17.691406 Z M 638.226562 0"/></g><g clip-path="url(#clip40)" clip-rule="nonzero"><path style="stroke:none;fill-rule:nonzero;fill:#faff11;fill-opacity:1" d="M 691.050781 17.660156 L 708.742188 17.660156 L 708.742188 35.351562 L 691.050781 35.351562 Z M 691.050781 17.660156"/></g><g clip-path="url(#clip41)" clip-rule="nonzero"><path style="stroke:none;fill-rule:nonzero;fill:#2b4892;fill-opacity:1" d="M 743.878906 0 L 761.570312 0 L 761.570312 17.691406 L 743.878906 17.691406 Z M 743.878906 0"/></g><g clip-path="url(#clip42)" clip-rule="nonzero"><path style="stroke:none;fill-rule:nonzero;fill:#6abf48;fill-opacity:1" d="M 726.269531 17.660156 L 743.960938 17.660156 L 743.960938 35.351562 L 726.269531 35.351562 Z M 726.269531 17.660156"/></g><g clip-path="url(#clip43)" clip-rule="nonzero"><path style="stroke:none;fill-rule:nonzero;fill:#f40c97;fill-opacity:1" d="M 708.660156 0 L 726.351562 0 L 726.351562 17.691406 L 708.660156 17.691406 Z M 708.660156 0"/></g><g clip-path="url(#clip44)" clip-rule="nonzero"><path style="stroke:none;fill-rule:nonzero;fill:#faff11;fill-opacity:1" d="M 761.488281 17.660156 L 779.179688 17.660156 L 779.179688 35.351562 L 761.488281 35.351562 Z M 761.488281 17.660156"/></g><g clip-path="url(#clip45)" clip-rule="nonzero"><path style="stroke:none;fill-rule:nonzero;fill:#2b4892;fill-opacity:1" d="M 814.316406 0 L 832.007812 0 L 832.007812 17.691406 L 814.316406 17.691406 Z M 814.316406 0"/></g><g clip-path="url(#clip46)" clip-rule="nonzero"><path style="stroke:none;fill-rule:nonzero;fill:#6abf48;fill-opacity:1" d="M 796.707031 17.660156 L 814.398438 17.660156 L 814.398438 35.351562 L 796.707031 35.351562 Z M 796.707031 17.660156"/></g><g clip-path="url(#clip47)" clip-rule="nonzero"><path style="stroke:none;fill-rule:nonzero;fill:#f40c97;fill-opacity:1" d="M 779.097656 0 L 796.789062 0 L 796.789062 17.691406 L 779.097656 17.691406 Z M 779.097656 0"/></g><g clip-path="url(#clip48)" clip-rule="nonzero"><path style="stroke:none;fill-rule:nonzero;fill:#faff11;fill-opacity:1" d="M 831.925781 17.660156 L 849.617188 17.660156 L 849.617188 35.351562 L 831.925781 35.351562 Z M 831.925781 17.660156"/></g><g clip-path="url(#clip49)" clip-rule="nonzero"><path style="stroke:none;fill-rule:nonzero;fill:#2b4892;fill-opacity:1" d="M 884.753906 0 L 902.445312 0 L 902.445312 17.691406 L 884.753906 17.691406 Z M 884.753906 0"/></g><g clip-path="url(#clip50)" clip-rule="nonzero"><path style="stroke:none;fill-rule:nonzero;fill:#6abf48;fill-opacity:1" d="M 867.144531 17.660156 L 884.835938 17.660156 L 884.835938 35.351562 L 867.144531 35.351562 Z M 867.144531 17.660156"/></g><g clip-path="url(#clip51)" clip-rule="nonzero"><path style="stroke:none;fill-rule:nonzero;fill:#f40c97;fill-opacity:1" d="M 849.535156 0 L 867.226562 0 L 867.226562 17.691406 L 849.535156 17.691406 Z M 849.535156 0"/></g><g clip-path="url(#clip52)" clip-rule="nonzero"><path style="stroke:none;fill-rule:nonzero;fill:#faff11;fill-opacity:1" d="M 902.363281 17.660156 L 920.054688 17.660156 L 920.054688 35.351562 L 902.363281 35.351562 Z M 902.363281 17.660156"/></g><g clip-path="url(#clip53)" clip-rule="nonzero"><path style="stroke:none;fill-rule:nonzero;fill:#2b4892;fill-opacity:1" d="M 955.191406 0 L 972.882812 0 L 972.882812 17.691406 L 955.191406 17.691406 Z M 955.191406 0"/></g><g clip-path="url(#clip54)" clip-rule="nonzero"><path style="stroke:none;fill-rule:nonzero;fill:#6abf48;fill-opacity:1" d="M 937.582031 17.660156 L 955.273438 17.660156 L 955.273438 35.351562 L 937.582031 35.351562 Z M 937.582031 17.660156"/></g><g clip-path="url(#clip55)" clip-rule="nonzero"><path style="stroke:none;fill-rule:nonzero;fill:#f40c97;fill-opacity:1" d="M 919.972656 0 L 937.664062 0 L 937.664062 17.691406 L 919.972656 17.691406 Z M 919.972656 0"/></g><g clip-path="url(#clip56)" clip-rule="nonzero"><path style="stroke:none;fill-rule:nonzero;fill:#faff11;fill-opacity:1" d="M 972.800781 17.660156 L 990.492188 17.660156 L 990.492188 35.351562 L 972.800781 35.351562 Z M 972.800781 17.660156"/></g><g clip-path="url(#clip57)" clip-rule="nonzero"><path style="stroke:none;fill-rule:nonzero;fill:#2b4892;fill-opacity:1" d="M 1025.625 0 L 1043.316406 0 L 1043.316406 17.691406 L 1025.625 17.691406 Z M 1025.625 0"/></g><g clip-path="url(#clip58)" clip-rule="nonzero"><path style="stroke:none;fill-rule:nonzero;fill:#6abf48;fill-opacity:1" d="M 1008.015625 17.660156 L 1025.707031 17.660156 L 1025.707031 35.351562 L 1008.015625 35.351562 Z M 1008.015625 17.660156"/></g><g clip-path="url(#clip59)" clip-rule="nonzero"><path style="stroke:none;fill-rule:nonzero;fill:#f40c97;fill-opacity:1" d="M 990.410156 0 L 1008.101562 0 L 1008.101562 17.691406 L 990.410156 17.691406 Z M 990.410156 0"/></g><g clip-path="url(#clip60)" clip-rule="nonzero"><path style="stroke:none;fill-rule:nonzero;fill:#faff11;fill-opacity:1" d="M 1043.234375 17.660156 L 1060.925781 17.660156 L 1060.925781 35.351562 L 1043.234375 35.351562 Z M 1043.234375 17.660156"/></g><g clip-path="url(#clip61)" clip-rule="nonzero"><path style="stroke:none;fill-rule:nonzero;fill:#2b4892;fill-opacity:1" d="M 1096.0625 0 L 1113.753906 0 L 1113.753906 17.691406 L 1096.0625 17.691406 Z M 1096.0625 0"/></g><g clip-path="url(#clip62)" clip-rule="nonzero"><path style="stroke:none;fill-rule:nonzero;fill:#6abf48;fill-opacity:1" d="M 1078.453125 17.660156 L 1096.144531 17.660156 L 1096.144531 35.351562 L 1078.453125 35.351562 Z M 1078.453125 17.660156"/></g><g clip-path="url(#clip63)" clip-rule="nonzero"><path style="stroke:none;fill-rule:nonzero;fill:#f40c97;fill-opacity:1" d="M 1060.84375 0 L 1078.535156 0 L 1078.535156 17.691406 L 1060.84375 17.691406 Z M 1060.84375 0"/></g><g clip-path="url(#clip64)" clip-rule="nonzero"><path style="stroke:none;fill-rule:nonzero;fill:#faff11;fill-opacity:1" d="M 1113.671875 17.660156 L 1131.363281 17.660156 L 1131.363281 35.351562 L 1113.671875 35.351562 Z M 1113.671875 17.660156"/></g><g clip-path="url(#clip65)" clip-rule="nonzero"><path style="stroke:none;fill-rule:nonzero;fill:#2b4892;fill-opacity:1" d="M 1166.5 0 L 1184.191406 0 L 1184.191406 17.691406 L 1166.5 17.691406 Z M 1166.5 0"/></g><g clip-path="url(#clip66)" clip-rule="nonzero"><path style="stroke:none;fill-rule:nonzero;fill:#6abf48;fill-opacity:1" d="M 1148.890625 17.660156 L 1166.582031 17.660156 L 1166.582031 35.351562 L 1148.890625 35.351562 Z M 1148.890625 17.660156"/></g><g clip-path="url(#clip67)" clip-rule="nonzero"><path style="stroke:none;fill-rule:nonzero;fill:#f40c97;fill-opacity:1" d="M 1131.28125 0 L 1148.972656 0 L 1148.972656 17.691406 L 1131.28125 17.691406 Z M 1131.28125 0"/></g><g clip-path="url(#clip68)" clip-rule="nonzero"><path style="stroke:none;fill-rule:nonzero;fill:#faff11;fill-opacity:1" d="M 1184.109375 17.660156 L 1201.800781 17.660156 L 1201.800781 35.351562 L 1184.109375 35.351562 Z M 1184.109375 17.660156"/></g><g clip-path="url(#clip69)" clip-rule="nonzero"><path style="stroke:none;fill-rule:nonzero;fill:#2b4892;fill-opacity:1" d="M 1236.9375 0 L 1254.628906 0 L 1254.628906 17.691406 L 1236.9375 17.691406 Z M 1236.9375 0"/></g><g clip-path="url(#clip70)" clip-rule="nonzero"><path style="stroke:none;fill-rule:nonzero;fill:#6abf48;fill-opacity:1" d="M 1219.328125 17.660156 L 1237.019531 17.660156 L 1237.019531 35.351562 L 1219.328125 35.351562 Z M 1219.328125 17.660156"/></g><g clip-path="url(#clip71)" clip-rule="nonzero"><path style="stroke:none;fill-rule:nonzero;fill:#f40c97;fill-opacity:1" d="M 1201.71875 0 L 1219.410156 0 L 1219.410156 17.691406 L 1201.71875 17.691406 Z M 1201.71875 0"/></g><g clip-path="url(#clip72)" clip-rule="nonzero"><path style="stroke:none;fill-rule:nonzero;fill:#faff11;fill-opacity:1" d="M 1254.546875 17.660156 L 1272.238281 17.660156 L 1272.238281 35.351562 L 1254.546875 35.351562 Z M 1254.546875 17.660156"/></g><g clip-path="url(#clip73)" clip-rule="nonzero"><path style="stroke:none;fill-rule:nonzero;fill:#2b4892;fill-opacity:1" d="M 1310.667969 0 L 1328.359375 0 L 1328.359375 17.691406 L 1310.667969 17.691406 Z M 1310.667969 0"/></g><g clip-path="url(#clip74)" clip-rule="nonzero"><path style="stroke:none;fill-rule:nonzero;fill:#6abf48;fill-opacity:1" d="M 1293.058594 17.660156 L 1310.753906 17.660156 L 1310.753906 35.351562 L 1293.058594 35.351562 Z M 1293.058594 17.660156"/></g><g clip-path="url(#clip75)" clip-rule="nonzero"><path style="stroke:none;fill-rule:nonzero;fill:#f40c97;fill-opacity:1" d="M 1275.453125 0 L 1293.144531 0 L 1293.144531 17.691406 L 1275.453125 17.691406 Z M 1275.453125 0"/></g><g clip-path="url(#clip76)" clip-rule="nonzero"><path style="stroke:none;fill-rule:nonzero;fill:#faff11;fill-opacity:1" d="M 1328.277344 17.660156 L 1345.96875 17.660156 L 1345.96875 35.351562 L 1328.277344 35.351562 Z M 1328.277344 17.660156"/></g><g clip-path="url(#clip77)" clip-rule="nonzero"><path style="stroke:none;fill-rule:nonzero;fill:#2b4892;fill-opacity:1" d="M 1381.105469 0 L 1398.796875 0 L 1398.796875 17.691406 L 1381.105469 17.691406 Z M 1381.105469 0"/></g><g clip-path="url(#clip78)" clip-rule="nonzero"><path style="stroke:none;fill-rule:nonzero;fill:#6abf48;fill-opacity:1" d="M 1363.496094 17.660156 L 1381.1875 17.660156 L 1381.1875 35.351562 L 1363.496094 35.351562 Z M 1363.496094 17.660156"/></g><g clip-path="url(#clip79)" clip-rule="nonzero"><path style="stroke:none;fill-rule:nonzero;fill:#f40c97;fill-opacity:1" d="M 1345.886719 0 L 1363.578125 0 L 1363.578125 17.691406 L 1345.886719 17.691406 Z M 1345.886719 0"/></g><g clip-path="url(#clip80)" clip-rule="nonzero"><path style="stroke:none;fill-rule:nonzero;fill:#faff11;fill-opacity:1" d="M 1398.714844 17.660156 L 1416.40625 17.660156 L 1416.40625 35.351562 L 1398.714844 35.351562 Z M 1398.714844 17.660156"/></g></g></svg>
